HIERARCHY
ROOT Hips
{
	OFFSET -3.958830 18.904000 13.208200
	CHANNELS 6 Xposition Yposition Zposition Zrotation Yrotation Xrotation 
	JOINT LHipJoint
	{
		OFFSET 0.000000 0.000000 0.000000
		CHANNELS 3 Zrotation Yrotation Xrotation
		JOINT LeftUpLeg
		{
			OFFSET 1.800000 -1.400000 0.085000
			CHANNELS 3 Zrotation Yrotation Xrotation
			JOINT LeftLeg
			{
				OFFSET 2.215000 -6.000000 0.000000
				CHANNELS 3 Zrotation Yrotation Xrotation
				JOINT LeftFoot
				{
					OFFSET 2.500000 -6.900000 0.000000
					CHANNELS 3 Zrotation Yrotation Xrotation
					JOINT LeftToeBase
					{
						OFFSET 0.200000 -0.500000 1.950000
						CHANNELS 3 Zrotation Yrotation Xrotation
						End Site
						{
							OFFSET 0.000000 0.000000 0.000000
						}
					}
				}
			}
		}
	}
	JOINT RHipJoint
	{
		OFFSET 0.000000 0.000000 0.000000
		CHANNELS 3 Zrotation Yrotation Xrotation
		JOINT RightUpLeg
		{
			OFFSET -1.800000 -1.400000 0.085000
			CHANNELS 3 Zrotation Yrotation Xrotation
			JOINT RightLeg
			{
				OFFSET -2.215000 -6.000000 0.000000
				CHANNELS 3 Zrotation Yrotation Xrotation
				JOINT RightFoot
				{
					OFFSET -2.500000 -6.900000 0.000000
					CHANNELS 3 Zrotation Yrotation Xrotation
					JOINT RightToeBase
					{
						OFFSET -0.200000 -0.500000 1.950000
						CHANNELS 3 Zrotation Yrotation Xrotation
						End Site
						{
							OFFSET 0.000000 0.000000 0.000000
						}
					}
				}
			}
		}
	}
	JOINT LowerBack
	{
		OFFSET 0.000000 0.000000 0.000000
		CHANNELS 3 Zrotation Yrotation Xrotation
		JOINT Spine
		{
			OFFSET -0.087000 1.940000 -0.288900
			CHANNELS 3 Zrotation Yrotation Xrotation
			JOINT Spine1
			{
				OFFSET 0.000000 1.950000 0.060000
				CHANNELS 3 Zrotation Yrotation Xrotation
				JOINT Neck
				{
					OFFSET 0.000000 0.000000 0.000000
					CHANNELS 3 Zrotation Yrotation Xrotation
					JOINT Neck1
					{
						OFFSET 0.000000 1.600000 0.340000
						CHANNELS 3 Zrotation Yrotation Xrotation
						JOINT Head
						{
							OFFSET 0.000000 1.667000 -0.240000
							CHANNELS 3 Zrotation Yrotation Xrotation
							End Site
							{
								OFFSET 0.000000 0.000000 0.000000
							}
						}
					}
				}
				JOINT LeftShoulder
				{
					OFFSET 0.000000 0.000000 0.000000
					CHANNELS 3 Zrotation Yrotation Xrotation
					JOINT LeftArm
					{
						OFFSET 2.700000 1.550000 -0.730000
						CHANNELS 3 Zrotation Yrotation Xrotation
						JOINT LeftForeArm
						{
							OFFSET 5.450000 0.000000 0.000000
							CHANNELS 3 Zrotation Yrotation Xrotation
							JOINT LeftHand
							{
								OFFSET 3.450000 0.000000 0.000000
								CHANNELS 3 Zrotation Yrotation Xrotation
								JOINT LeftHandIndex1
								{
									OFFSET 0.750000 0.000000 0.000000
									CHANNELS 3 Zrotation Yrotation Xrotation
									End Site
									{
										OFFSET 0.000000 0.000000 0.000000
									}
								}
							}
						}
					}
				}
				JOINT RightShoulder
				{
					OFFSET 0.000000 0.000000 0.000000
					CHANNELS 3 Zrotation Yrotation Xrotation
					JOINT RightArm
					{
						OFFSET -2.700000 1.550000 -0.730000
						CHANNELS 3 Zrotation Yrotation Xrotation
						JOINT RightForeArm
						{
							OFFSET -5.450000 0.000000 0.000000
							CHANNELS 3 Zrotation Yrotation Xrotation
							JOINT RightHand
							{
								OFFSET -3.450000 0.000000 0.000000
								CHANNELS 3 Zrotation Yrotation Xrotation
								JOINT RightHandIndex1
								{
									OFFSET -0.750000 0.000000 0.000000
									CHANNELS 3 Zrotation Yrotation Xrotation
									End Site
									{
										OFFSET 0.000000 0.000000 0.000000
									}
								}
							}
						}
					}
				}
			}
		}
	}
}
MOTION
Frames: 9
Frame Time: 0.016667
0.447380 17.523470 -2.648600 -6.626484 -10.161443 -12.685244 -15.876340 10.550090 5.539597 16.044514 -11.822071 -37.955102 -18.550838 34.835755 79.578152 4.274198 13.625368 -0.260546 4.326920 4.797160 3.780420 18.167352 -6.499103 4.167030 -9.611881 19.190075 -28.275603 30.010370 -33.896613 69.793088 -4.202415 -12.094203 2.002004 1.880630 -4.358610 -1.286390 -2.674339 -4.330054 -9.805505 4.233711 -5.786569 88.357292 -8.705425 -3.930322 5.129099 11.968800 -7.413788 -15.894555 -41.670651 28.151779 88.090973 0.307380 -4.576040 -104.353220 -4.983568 -33.399374 7.198359 -66.537808 -19.932366 -7.904143 -1.888843 7.327298 0.927541 -1.087767 2.733512 0.296540 -2.088560 1.559140 -0.756360 -17.367035 45.924481 8.769974 56.053808 41.618515 0.700582 -7.596743 -4.398723 1.396163 2.295915 -1.865801 2.548260 -0.649960 -2.652070 -1.218720 
0.422850 17.533320 -2.613640 -6.277111 -9.461076 -12.867821 -15.867096 10.586005 5.544200 15.729616 -12.269130 -37.675108 -18.665957 34.700027 79.354518 4.399938 13.636332 -0.163277 4.169410 4.623070 3.626010 18.159025 -6.565448 4.124123 -10.006859 18.508299 -27.764088 30.289774 -34.027177 69.336947 -4.126164 -12.063984 2.052327 1.775800 -4.309470 -1.285570 -2.660171 -4.339374 -9.790252 4.369384 -6.237364 89.646986 -9.503028 -3.473207 2.398547 12.823130 -7.552699 -16.473249 -41.664257 28.843919 90.417915 1.185200 -4.980200 -105.295460 -8.854321 -32.576539 7.315965 -68.035937 -14.970156 -10.799294 1.987012 5.984509 1.510633 -1.124182 2.709344 0.258290 -2.065470 1.487160 -0.750330 -15.112741 46.253526 8.926705 61.775672 38.862789 -0.342264 -4.762608 -9.249696 2.074224 2.293512 -1.924437 2.514000 -0.686660 -2.611990 -1.198260 
0.417530 17.717310 -2.519440 -6.767446 -8.470530 -13.102560 -15.927645 11.038284 5.440557 15.397455 -12.066623 -36.110911 -18.095085 32.543448 77.240980 4.410103 13.130168 0.080734 3.800750 4.235550 3.288070 18.074516 -6.727411 3.867234 -7.147866 17.207474 -25.285404 26.203886 -30.666077 69.009811 -3.776559 -11.548237 2.232332 1.540570 -4.176930 -1.255280 -2.421515 -4.936185 -9.668097 3.999437 -6.190335 94.510651 -8.488779 -3.113478 -6.338189 13.616060 -8.479746 -16.518065 -43.031379 31.830539 93.976618 1.938470 -4.927750 -108.542470 -11.631903 -24.838211 5.439356 -76.724763 -4.724444 -20.513487 0.879057 0.742023 1.114653 -1.222019 2.608248 0.213470 -1.991270 1.332120 -0.787850 -13.838253 40.933199 8.869039 75.692646 31.630388 -6.185000 -5.765666 -5.681888 2.035400 2.157390 -2.025769 2.411950 -0.789140 -2.496630 -1.149990 
0.452470 17.935930 -2.335650 -6.812555 -6.547461 -12.517044 -15.908946 11.607025 5.227924 12.863951 -12.295159 -34.150449 -15.038549 29.067594 76.205932 4.659578 12.646360 0.564152 3.197750 3.621700 2.748780 18.026483 -7.020988 3.616290 -6.241622 15.099292 -22.911221 23.676674 -27.900596 67.092502 -3.364243 -10.989046 2.550916 1.154610 -3.843610 -1.185990 -2.354033 -5.354089 -9.593293 5.226492 -7.825534 101.525715 -11.444807 -1.891485 -21.978276 14.904482 -9.002422 -14.728895 -36.198024 28.379959 103.062092 1.048280 -5.099770 -111.856840 -14.217006 -2.934721 -1.445136 -80.809978 11.913422 -31.969816 0.281611 -10.450181 0.692722 -1.689699 2.313954 -0.022130 -1.737890 1.044620 -0.731970 -14.502837 22.012156 7.784898 94.663993 16.610254 -18.309074 -8.143834 -2.843426 2.124251 2.305293 -1.819725 2.273010 -0.860090 -2.312900 -1.075730 
0.445380 18.237930 -2.151630 -7.568491 -5.117876 -11.453648 -15.995933 12.531437 4.857380 11.356553 -10.961831 -31.795149 -10.739995 24.179828 73.471261 4.356593 11.617149 0.963708 2.704310 3.067640 2.407560 17.876119 -7.187915 3.369637 -3.417337 13.489816 -19.176589 22.038858 -24.111863 62.401347 -2.833140 -9.927645 2.893018 0.872520 -3.542740 -1.158480 -2.005611 -6.471523 -9.463712 4.779089 -6.548505 107.129885 -11.508067 0.054596 -37.235834 14.391174 -9.986575 -12.336982 -28.842785 22.274345 111.342111 -3.180290 -5.694960 -111.948930 -7.640740 17.849023 -6.157066 -82.098156 27.083104 -38.104085 1.826399 -9.454844 0.976491 -2.202529 1.767146 -0.091200 -1.510060 0.781320 -0.799370 -21.128906 4.929336 9.143542 103.502666 -0.351385 -32.182191 -6.830130 9.760909 0.110179 2.448818 -1.449114 2.041390 -0.871800 -2.096890 -1.096270 
0.456710 18.780770 -1.970590 -7.742286 -2.814580 -10.241168 -15.851498 13.465943 4.358543 6.614810 -9.861970 -27.332255 -5.811490 16.572817 65.743133 3.284473 9.017149 1.400167 3.058380 3.243030 2.982510 17.866328 -8.264694 2.956002 3.138377 8.969771 -14.634854 11.021013 -14.366618 56.381484 -2.174156 -7.074569 3.442419 1.070120 -3.768080 -1.181650 -2.136549 -6.224196 -8.794742 6.338993 -10.072748 108.678533 -17.583731 -1.681255 -48.345217 13.977541 -10.611185 -10.527116 -27.905530 25.559880 128.717257 2.534080 -3.316990 -108.492190 -8.757216 24.418604 -6.381763 -85.701242 40.946430 -53.695731 24.030397 -37.737074 -3.553216 -1.287013 1.607322 0.369380 -1.725370 1.050410 -0.960230 -20.027423 1.386300 7.731835 100.253390 -3.829235 -33.293782 -16.153172 -33.546569 12.270879 3.423192 -0.896638 1.919870 -0.873320 -2.338120 -1.245100 
0.467530 19.331330 -1.947350 -4.015425 3.438571 -8.422096 -15.324699 13.272015 4.228909 -7.455945 -9.699781 -21.351395 7.373112 4.563412 54.829328 2.250639 5.780093 2.546605 2.253710 2.087400 2.297140 18.199845 -10.147654 2.753474 5.107826 3.787035 -16.115593 -1.637008 -6.331962 50.549160 -1.078113 -5.258434 3.859146 0.975540 -3.585810 -1.327390 -3.354197 -3.153116 -8.059406 4.830654 -22.102272 113.844622 -23.391105 -11.263805 -50.492802 22.714921 -5.967171 -19.578852 -43.968188 41.491896 106.568824 11.662470 -12.697510 -73.228530 5.037969 36.008984 -9.076173 -73.896858 53.095734 -52.685353 -30.462176 -51.551855 14.452918 -0.893001 1.729687 0.483760 -1.458530 0.553130 -1.126310 -42.867848 -10.887871 25.650779 103.231556 -38.598480 -64.081349 47.819004 0.382886 -9.115011 2.154478 -0.367635 1.248970 -1.098030 -2.058030 -1.514780 
0.601660 19.863500 -2.196110 -7.449652 2.491064 -15.711815 -15.468606 14.864630 3.403647 -3.095700 -5.354316 -13.184702 9.198280 3.398705 45.315597 1.823756 4.537114 2.923457 2.231060 2.025450 2.118890 17.886001 -10.028746 2.816143 5.218135 1.374832 -6.092048 1.984511 -6.431778 39.295459 -0.892054 -4.151738 4.238074 0.981750 -3.442070 -1.297940 -2.714076 -5.619461 -7.715856 4.565247 -21.690774 120.743764 -15.314093 -6.104305 -38.556635 19.844333 -7.951862 -21.099482 -46.577489 34.311614 93.527734 -2.917200 -18.914760 -58.451030 1.426684 22.313070 -6.305661 -72.377709 49.809025 -49.135326 -33.456361 6.437439 -8.316965 -2.311411 1.123248 0.317680 -1.377780 0.409800 -0.974880 -36.375237 -4.346610 25.331724 103.938725 -41.556102 -73.737138 73.409802 12.529908 -7.434352 1.487895 -1.277575 1.268340 -0.968410 -1.816280 -1.504310 
0.595810 20.454160 -2.318820 -6.596824 -0.023506 -16.780141 -15.195498 14.452933 3.235453 -6.479180 -2.510850 -8.651619 13.194371 1.933853 35.873630 1.623220 3.181096 3.424173 2.099740 1.919270 1.677820 18.134791 -10.711663 3.085413 10.204809 -2.360265 -3.535528 -12.221422 -1.028824 30.165418 -0.689320 -3.049090 4.589229 1.067780 -3.306210 -1.354420 -3.329373 -3.801630 -7.456196 1.528934 -22.783635 128.387627 -14.777167 -11.444671 -33.261888 18.484913 -5.572604 -20.436199 -58.346744 42.520698 70.330232 4.977890 -20.014360 -50.576900 11.134977 26.753387 -5.042044 -71.842735 47.455175 -49.203851 -37.960023 19.023000 -13.493063 -2.502772 1.475370 0.181100 -1.348340 0.222640 -0.828680 -43.578041 -15.626152 21.818605 102.691552 -44.401386 -68.140617 84.962058 15.789183 -2.818022 1.193298 -1.560027 1.212170 -0.934030 -1.636890 -1.469200 
